<svg xmlns="http://www.w3.org/2000/svg" xmlns:xlink="http://www.w3.org/1999/xlink" width="500" zoomAndPan="magnify" viewBox="0 0 375 374.999991" height="500" preserveAspectRatio="xMidYMid meet" version="1.0"><defs><clipPath id="id1"><path d="M 0 0 L 373.5 0 L 373.5 375 L 0 375 Z M 0 0 " clip-rule="nonzero"/></clipPath></defs><g clip-path="url(#id1)"><path fill="rgb(100%, 96.859741%, 45.878601%)" d="M 250.972656 288.414062 C 174.296875 288.414062 110.320312 224.414062 110.320312 147.714844 C 110.320312 74.546875 168.574219 12.984375 240.503906 7.484375 C 223.800781 2.609375 206.15625 -0.0195312 187.882812 -0.0195312 C 84.339844 -0.0195312 0.410156 83.941406 0.410156 187.5 C 0.410156 291.058594 84.339844 375.019531 187.882812 375.019531 C 281.488281 375.019531 359.070312 306.371094 373.070312 216.664062 C 348.675781 259.210938 302.726562 288.414062 250.972656 288.414062 " fill-opacity="1" fill-rule="nonzero"/></g><path fill="rgb(92.549133%, 77.648926%, 50.19989%)" d="M 49.046875 128.90625 C 49.046875 134.558594 44.453125 139.167969 38.785156 139.167969 C 33.117188 139.167969 28.527344 134.558594 28.527344 128.90625 C 28.527344 123.234375 33.117188 118.625 38.785156 118.625 C 44.453125 118.625 49.046875 123.234375 49.046875 128.90625 " fill-opacity="1" fill-rule="nonzero"/><path fill="rgb(92.549133%, 77.648926%, 50.19989%)" d="M 67.542969 93.710938 C 67.542969 99.382812 62.933594 103.976562 57.265625 103.976562 C 51.597656 103.976562 47.003906 99.382812 47.003906 93.710938 C 47.003906 88.042969 51.597656 83.449219 57.265625 83.449219 C 62.933594 83.449219 67.542969 88.042969 67.542969 93.710938 " fill-opacity="1" fill-rule="nonzero"/><path fill="rgb(92.549133%, 77.648926%, 50.19989%)" d="M 88.0625 150.378906 C 88.0625 156.066406 83.472656 160.660156 77.804688 160.660156 C 72.136719 160.660156 67.542969 156.066406 67.542969 150.378906 C 67.542969 144.726562 72.136719 140.132812 77.804688 140.132812 C 83.472656 140.132812 88.0625 144.726562 88.0625 150.378906 " fill-opacity="1" fill-rule="nonzero"/></svg>