<svg xmlns="http://www.w3.org/2000/svg" xmlns:xlink="http://www.w3.org/1999/xlink" width="500" zoomAndPan="magnify" viewBox="0 0 375 374.999991" height="500" preserveAspectRatio="xMidYMid meet" version="1.0"><defs><clipPath id="id1"><path d="M 119.0625 112.5 L 225 112.5 L 225 231 L 119.0625 231 Z M 119.0625 112.5 " clip-rule="nonzero"/></clipPath><clipPath id="id2"><path d="M 151 151 L 256.3125 151 L 256.3125 262.5 L 151 262.5 Z M 151 151 " clip-rule="nonzero"/></clipPath></defs><path fill="rgb(15.289307%, 92.158508%, 89.408875%)" d="M 170.179688 169.921875 L 170.523438 217.023438 L 175.636719 216.984375 L 175.292969 169.886719 L 170.179688 169.921875 " fill-opacity="1" fill-rule="nonzero"/><path fill="rgb(15.289307%, 92.158508%, 89.408875%)" d="M 178.277344 169.863281 L 178.621094 216.964844 L 183.734375 216.925781 L 183.390625 169.828125 L 178.277344 169.863281 " fill-opacity="1" fill-rule="nonzero"/><g clip-path="url(#id1)"><path fill="rgb(15.289307%, 92.158508%, 89.408875%)" d="M 224.191406 170.808594 L 224.191406 171.125 C 224.191406 188.128906 218.539062 202.753906 207.84375 213.414062 C 196.761719 224.460938 181.082031 230.296875 162.488281 230.296875 L 155.894531 230.296875 L 155.894531 209.214844 L 164.847656 209.214844 C 188.496094 209.214844 202.613281 195.179688 202.613281 171.671875 L 202.613281 171.207031 C 202.613281 147.699219 188.496094 133.660156 164.847656 133.660156 L 126.496094 133.660156 L 126.496094 139.683594 L 163.503906 139.683594 C 182.800781 139.683594 195.269531 152.085938 195.269531 171.28125 L 195.269531 171.597656 C 195.269531 181.234375 192.214844 189.285156 186.4375 194.878906 C 180.816406 200.316406 172.886719 203.191406 163.503906 203.191406 L 155.894531 203.191406 L 155.894531 195.785156 L 163.503906 195.785156 C 178.742188 195.785156 187.839844 186.742188 187.839844 171.597656 L 187.839844 171.28125 C 187.839844 156.132812 178.742188 147.09375 163.503906 147.09375 L 119.066406 147.09375 L 119.066406 126.253906 L 164.847656 126.253906 C 178.226562 126.253906 189.527344 130.363281 197.53125 138.140625 C 205.714844 146.097656 210.042969 157.53125 210.042969 171.207031 L 210.042969 171.671875 C 210.042969 185.4375 205.714844 196.902344 197.523438 204.828125 C 189.550781 212.542969 178.253906 216.621094 164.847656 216.621094 L 163.324219 216.621094 L 163.324219 222.878906 C 195.816406 222.539062 216.761719 202.300781 216.761719 171.125 L 216.761719 170.808594 C 216.761719 139.460938 196.1875 119.988281 163.070312 119.988281 L 122.78125 119.988281 L 122.78125 112.582031 L 163.070312 112.582031 C 181.566406 112.582031 197.105469 118.246094 208.007812 128.972656 C 218.59375 139.390625 224.191406 153.855469 224.191406 170.808594 " fill-opacity="1" fill-rule="nonzero"/></g><path fill="rgb(15.289307%, 92.158508%, 89.408875%)" d="M 142.667969 161.878906 L 143.167969 230.277344 L 150.597656 230.226562 L 150.097656 161.824219 L 142.667969 161.878906 " fill-opacity="1" fill-rule="nonzero"/><g clip-path="url(#id2)"><path fill="rgb(100%, 37.249756%, 12.159729%)" d="M 182.515625 233.121094 C 180.113281 233.726562 177.640625 234.214844 175.101562 234.589844 L 175.300781 262.324219 L 182.730469 262.269531 Z M 170.621094 235.121094 C 168.199219 235.34375 165.722656 235.464844 163.195312 235.484375 L 163.390625 262.332031 L 170.820312 262.28125 Z M 158.863281 235.488281 L 151.433594 235.488281 L 151.632812 262.417969 L 159.058594 262.367188 Z M 240.136719 161.019531 C 236.28125 157.222656 231.84375 154.058594 226.898438 151.558594 C 227.75 154.652344 228.382812 157.851562 228.800781 161.15625 C 241.636719 169.804688 248.894531 184.234375 248.894531 202.855469 L 248.894531 203.167969 C 248.894531 234.347656 227.949219 254.585938 195.457031 254.925781 L 195.457031 248.667969 L 196.980469 248.667969 C 210.386719 248.667969 221.683594 244.589844 229.65625 236.875 C 237.847656 228.949219 242.175781 217.484375 242.175781 203.71875 L 242.175781 203.25 C 242.175781 189.578125 237.847656 178.144531 229.664062 170.1875 C 229.570312 170.101562 229.480469 170.011719 229.390625 169.925781 C 229.394531 170.21875 229.394531 170.511719 229.394531 170.808594 L 229.394531 171.125 C 229.394531 174.386719 229.199219 177.582031 228.808594 180.695312 C 232.683594 186.660156 234.746094 194.261719 234.746094 203.25 L 234.746094 203.71875 C 234.746094 227.226562 220.628906 241.261719 196.980469 241.261719 L 188.03125 241.261719 L 188.03125 262.34375 L 194.621094 262.34375 C 213.214844 262.34375 228.894531 256.503906 239.976562 245.460938 C 250.667969 234.796875 256.324219 220.175781 256.324219 203.167969 L 256.324219 202.855469 C 256.324219 185.902344 250.726562 171.4375 240.136719 161.019531 Z M 226.082031 193.128906 C 225.710938 194.273438 225.3125 195.402344 224.882812 196.515625 C 223.503906 200.078125 221.824219 203.453125 219.851562 206.621094 C 218.75 219.621094 210.304688 227.417969 196.734375 227.816406 C 196.371094 227.824219 196.007812 227.832031 195.640625 227.832031 L 188.03125 227.832031 L 188.03125 235.238281 L 195.640625 235.238281 C 205.019531 235.238281 212.953125 232.363281 218.570312 226.921875 C 224.347656 221.332031 227.402344 213.28125 227.402344 203.640625 L 227.402344 203.328125 C 227.402344 199.667969 226.949219 196.253906 226.082031 193.128906 Z M 165.667969 171.730469 L 165.667969 165.707031 L 182.09375 165.707031 C 181.476562 162.777344 180.335938 160.296875 178.707031 158.300781 L 158.238281 158.300781 L 158.238281 179.136719 L 181.578125 179.136719 C 182.265625 176.960938 182.625 174.484375 182.632812 171.730469 Z M 196.734375 227.816406 C 193.964844 229.238281 191.0625 230.464844 188.03125 231.496094 L 188.03125 227.832031 L 195.640625 227.832031 C 196.007812 227.832031 196.371094 227.824219 196.734375 227.816406 " fill-opacity="1" fill-rule="nonzero"/></g></svg>