<svg xmlns="http://www.w3.org/2000/svg" xmlns:xlink="http://www.w3.org/1999/xlink" width="500" zoomAndPan="magnify" viewBox="0 0 375 374.999991" height="500" preserveAspectRatio="xMidYMid meet" version="1.0"><path fill="rgb(95.689392%, 73.728943%, 19.999695%)" d="M 315.171875 187.511719 C 315.171875 189.597656 315.121094 191.6875 315.019531 193.773438 C 314.914062 195.859375 314.761719 197.945312 314.558594 200.023438 C 314.351562 202.101562 314.097656 204.175781 313.789062 206.242188 C 313.484375 208.308594 313.125 210.367188 312.71875 212.414062 C 312.3125 214.464844 311.851562 216.503906 311.347656 218.527344 C 310.839844 220.554688 310.28125 222.570312 309.675781 224.566406 C 309.066406 226.566406 308.414062 228.550781 307.710938 230.515625 C 307.003906 232.484375 306.253906 234.433594 305.453125 236.363281 C 304.65625 238.292969 303.808594 240.203125 302.914062 242.09375 C 302.023438 243.980469 301.082031 245.847656 300.097656 247.6875 C 299.113281 249.53125 298.082031 251.347656 297.007812 253.140625 C 295.933594 254.933594 294.816406 256.699219 293.65625 258.433594 C 292.496094 260.171875 291.292969 261.878906 290.050781 263.558594 C 288.804688 265.234375 287.519531 266.882812 286.195312 268.496094 C 284.867188 270.113281 283.503906 271.695312 282.101562 273.242188 C 280.699219 274.789062 279.257812 276.300781 277.78125 277.78125 C 276.304688 279.257812 274.789062 280.699219 273.242188 282.101562 C 271.695312 283.503906 270.113281 284.867188 268.496094 286.191406 C 266.882812 287.519531 265.238281 288.804688 263.558594 290.046875 C 261.878906 291.292969 260.171875 292.496094 258.433594 293.65625 C 256.699219 294.816406 254.933594 295.933594 253.140625 297.007812 C 251.347656 298.082031 249.53125 299.113281 247.691406 300.097656 C 245.847656 301.082031 243.980469 302.019531 242.09375 302.914062 C 240.203125 303.808594 238.292969 304.652344 236.363281 305.453125 C 234.433594 306.253906 232.484375 307.003906 230.519531 307.707031 C 228.550781 308.414062 226.566406 309.066406 224.570312 309.671875 C 222.570312 310.28125 220.554688 310.835938 218.53125 311.34375 C 216.503906 311.851562 214.464844 312.308594 212.417969 312.71875 C 210.367188 313.125 208.308594 313.484375 206.242188 313.789062 C 204.175781 314.09375 202.101562 314.351562 200.023438 314.554688 C 197.945312 314.761719 195.863281 314.914062 193.773438 315.015625 C 191.6875 315.121094 189.601562 315.171875 187.511719 315.171875 C 185.421875 315.171875 183.332031 315.121094 181.246094 315.015625 C 179.160156 314.914062 177.078125 314.761719 174.996094 314.554688 C 172.917969 314.351562 170.84375 314.09375 168.777344 313.789062 C 166.710938 313.484375 164.65625 313.125 162.605469 312.71875 C 160.554688 312.308594 158.519531 311.851562 156.492188 311.34375 C 154.464844 310.835938 152.453125 310.28125 150.453125 309.671875 C 148.453125 309.066406 146.46875 308.410156 144.503906 307.707031 C 142.535156 307.003906 140.585938 306.253906 138.65625 305.453125 C 136.726562 304.652344 134.816406 303.808594 132.929688 302.914062 C 131.039062 302.019531 129.175781 301.082031 127.332031 300.097656 C 125.488281 299.113281 123.671875 298.082031 121.878906 297.007812 C 120.085938 295.933594 118.324219 294.816406 116.585938 293.65625 C 114.847656 292.496094 113.140625 291.292969 111.464844 290.046875 C 109.785156 288.804688 108.136719 287.519531 106.523438 286.191406 C 104.910156 284.867188 103.328125 283.503906 101.777344 282.101562 C 100.230469 280.699219 98.71875 279.257812 97.242188 277.78125 C 95.761719 276.300781 94.324219 274.789062 92.921875 273.242188 C 91.515625 271.695312 90.152344 270.113281 88.828125 268.496094 C 87.503906 266.882812 86.21875 265.234375 84.972656 263.558594 C 83.726562 261.878906 82.523438 260.171875 81.363281 258.433594 C 80.203125 256.699219 79.085938 254.933594 78.011719 253.140625 C 76.9375 251.347656 75.910156 249.53125 74.925781 247.6875 C 73.9375 245.847656 73 243.980469 72.105469 242.09375 C 71.214844 240.203125 70.367188 238.292969 69.566406 236.363281 C 68.769531 234.433594 68.015625 232.484375 67.3125 230.515625 C 66.609375 228.550781 65.953125 226.566406 65.347656 224.566406 C 64.742188 222.570312 64.183594 220.554688 63.675781 218.527344 C 63.167969 216.503906 62.710938 214.464844 62.304688 212.414062 C 61.894531 210.367188 61.539062 208.308594 61.230469 206.242188 C 60.925781 204.175781 60.667969 202.101562 60.464844 200.023438 C 60.257812 197.945312 60.105469 195.859375 60.003906 193.773438 C 59.902344 191.6875 59.851562 189.597656 59.851562 187.511719 C 59.851562 185.421875 59.902344 183.332031 60.003906 181.246094 C 60.105469 179.160156 60.257812 177.078125 60.464844 174.996094 C 60.667969 172.917969 60.925781 170.84375 61.230469 168.777344 C 61.539062 166.710938 61.894531 164.652344 62.304688 162.605469 C 62.710938 160.554688 63.167969 158.515625 63.675781 156.492188 C 64.183594 154.464844 64.742188 152.453125 65.347656 150.453125 C 65.953125 148.453125 66.609375 146.46875 67.3125 144.503906 C 68.015625 142.535156 68.769531 140.585938 69.566406 138.65625 C 70.367188 136.726562 71.214844 134.816406 72.105469 132.929688 C 73 131.039062 73.9375 129.171875 74.925781 127.332031 C 75.910156 125.488281 76.9375 123.671875 78.011719 121.878906 C 79.085938 120.085938 80.203125 118.324219 81.363281 116.585938 C 82.523438 114.847656 83.726562 113.140625 84.972656 111.460938 C 86.21875 109.785156 87.503906 108.136719 88.828125 106.523438 C 90.152344 104.90625 91.515625 103.324219 92.921875 101.777344 C 94.324219 100.230469 95.761719 98.71875 97.242188 97.238281 C 98.71875 95.761719 100.230469 94.324219 101.777344 92.917969 C 103.328125 91.515625 104.910156 90.152344 106.523438 88.828125 C 108.136719 87.5 109.785156 86.214844 111.464844 84.972656 C 113.140625 83.726562 114.847656 82.523438 116.585938 81.363281 C 118.324219 80.203125 120.085938 79.085938 121.878906 78.011719 C 123.671875 76.9375 125.488281 75.90625 127.332031 74.921875 C 129.175781 73.9375 131.039062 73 132.929688 72.105469 C 134.816406 71.210938 136.726562 70.367188 138.65625 69.566406 C 140.585938 68.765625 142.535156 68.015625 144.503906 67.3125 C 146.46875 66.609375 148.453125 65.953125 150.453125 65.347656 C 152.453125 64.738281 154.464844 64.183594 156.492188 63.675781 C 158.519531 63.167969 160.554688 62.710938 162.605469 62.300781 C 164.65625 61.894531 166.710938 61.539062 168.777344 61.230469 C 170.84375 60.925781 172.917969 60.667969 174.996094 60.464844 C 177.078125 60.257812 179.160156 60.105469 181.246094 60.003906 C 183.332031 59.898438 185.421875 59.847656 187.511719 59.847656 C 189.601562 59.847656 191.6875 59.898438 193.773438 60.003906 C 195.863281 60.105469 197.945312 60.257812 200.023438 60.464844 C 202.101562 60.667969 204.175781 60.925781 206.242188 61.230469 C 208.308594 61.539062 210.367188 61.894531 212.417969 62.300781 C 214.464844 62.710938 216.503906 63.167969 218.53125 63.675781 C 220.554688 64.183594 222.570312 64.738281 224.570312 65.347656 C 226.566406 65.953125 228.550781 66.609375 230.519531 67.3125 C 232.484375 68.015625 234.433594 68.765625 236.363281 69.566406 C 238.292969 70.367188 240.203125 71.210938 242.09375 72.105469 C 243.980469 73 245.847656 73.9375 247.691406 74.921875 C 249.53125 75.90625 251.347656 76.9375 253.140625 78.011719 C 254.933594 79.085938 256.699219 80.203125 258.433594 81.363281 C 260.171875 82.523438 261.878906 83.726562 263.558594 84.972656 C 265.234375 86.214844 266.882812 87.5 268.496094 88.828125 C 270.113281 90.152344 271.695312 91.515625 273.242188 92.917969 C 274.789062 94.324219 276.304688 95.761719 277.78125 97.238281 C 279.257812 98.71875 280.699219 100.230469 282.101562 101.777344 C 283.503906 103.324219 284.867188 104.90625 286.195312 106.523438 C 287.519531 108.136719 288.804688 109.785156 290.050781 111.460938 C 291.292969 113.140625 292.496094 114.847656 293.65625 116.585938 C 294.816406 118.324219 295.933594 120.085938 297.007812 121.878906 C 298.082031 123.671875 299.113281 125.488281 300.097656 127.332031 C 301.082031 129.171875 302.023438 131.039062 302.914062 132.929688 C 303.808594 134.816406 304.65625 136.726562 305.453125 138.65625 C 306.253906 140.585938 307.003906 142.535156 307.710938 144.503906 C 308.414062 146.46875 309.066406 148.453125 309.675781 150.453125 C 310.28125 152.453125 310.839844 154.464844 311.347656 156.492188 C 311.851562 158.515625 312.3125 160.554688 312.71875 162.605469 C 313.125 164.652344 313.484375 166.710938 313.789062 168.777344 C 314.097656 170.84375 314.351562 172.917969 314.558594 174.996094 C 314.761719 177.078125 314.914062 179.160156 315.019531 181.246094 C 315.121094 183.332031 315.171875 185.421875 315.171875 187.511719 Z M 315.171875 187.511719 " fill-opacity="1" fill-rule="nonzero"/><path fill="rgb(95.689392%, 73.728943%, 19.999695%)" d="M 162.308594 43.664062 L 187.511719 0 L 212.710938 43.664062 Z M 162.308594 43.664062 " fill-opacity="1" fill-rule="nonzero"/><path fill="rgb(95.689392%, 73.728943%, 19.999695%)" d="M 93.761719 75.539062 L 93.753906 25.125 L 137.410156 50.332031 Z M 93.761719 75.539062 " fill-opacity="1" fill-rule="nonzero"/><path fill="rgb(95.689392%, 73.728943%, 19.999695%)" d="M 50.332031 137.414062 L 25.121094 93.757812 L 75.535156 93.761719 Z M 50.332031 137.414062 " fill-opacity="1" fill-rule="nonzero"/><path fill="rgb(95.689392%, 73.728943%, 19.999695%)" d="M 43.664062 212.714844 L 0 187.515625 L 43.664062 162.3125 Z M 43.664062 212.714844 " fill-opacity="1" fill-rule="nonzero"/><path fill="rgb(95.689392%, 73.728943%, 19.999695%)" d="M 75.535156 281.261719 L 25.121094 281.273438 L 50.332031 237.613281 Z M 75.535156 281.261719 " fill-opacity="1" fill-rule="nonzero"/><path fill="rgb(95.689392%, 73.728943%, 19.999695%)" d="M 137.410156 324.6875 L 93.757812 349.90625 L 93.761719 299.488281 Z M 137.410156 324.6875 " fill-opacity="1" fill-rule="nonzero"/><path fill="rgb(95.689392%, 73.728943%, 19.999695%)" d="M 212.710938 331.359375 L 187.515625 375.027344 L 162.308594 331.359375 Z M 212.710938 331.359375 " fill-opacity="1" fill-rule="nonzero"/><path fill="rgb(95.689392%, 73.728943%, 19.999695%)" d="M 281.257812 299.488281 L 281.269531 349.902344 L 237.609375 324.6875 Z M 281.257812 299.488281 " fill-opacity="1" fill-rule="nonzero"/><path fill="rgb(95.689392%, 73.728943%, 19.999695%)" d="M 324.6875 237.613281 L 349.90625 281.265625 L 299.488281 281.261719 Z M 324.6875 237.613281 " fill-opacity="1" fill-rule="nonzero"/><path fill="rgb(95.689392%, 73.728943%, 19.999695%)" d="M 331.359375 162.3125 L 375.023438 187.507812 L 331.359375 212.714844 Z M 331.359375 162.3125 " fill-opacity="1" fill-rule="nonzero"/><path fill="rgb(95.689392%, 73.728943%, 19.999695%)" d="M 299.488281 93.761719 L 349.898438 93.75 L 324.6875 137.414062 Z M 299.488281 93.761719 " fill-opacity="1" fill-rule="nonzero"/><path fill="rgb(95.689392%, 73.728943%, 19.999695%)" d="M 237.609375 50.335938 L 281.265625 25.117188 L 281.257812 75.539062 Z M 237.609375 50.335938 " fill-opacity="1" fill-rule="nonzero"/></svg>